<svg width="100" height="94" viewBox="0 0 100 94" fill="none" xmlns="http://www.w3.org/2000/svg">
<g clip-path="url(#clip0_418_210)">
<path d="M76.1553 63.5811V58.4265H95.5638V47.5961H99.9885V63.5811H76.1437H76.1553Z" fill="white"/>
<path d="M76.1553 45.3257V40.1711H100V45.3257H76.1553Z" fill="white"/>
<path d="M76.1553 35.4914V19.24H80.5453V30.3716H85.8595V21.4987H90.2842V30.3716H99.9885V35.4914H76.1437H76.1553Z" fill="white"/>
<path d="M76.1553 16.6337V0.370668H80.5453V11.5023H85.5823V2.62942H90.0069V11.5023H95.5638V0H99.9885V16.6337H76.1437H76.1553Z" fill="white"/>
<path d="M0 81.0488C0 72.8825 5.78789 68.8284 12.0957 68.8284C18.4034 68.8284 22.3775 72.3497 22.6895 77.4696H17.6178C17.2482 74.9096 15.134 73.2301 12.061 73.2301C8.00601 73.2301 4.87523 76.1027 4.87523 81.0488C4.87523 85.9949 8.00601 89.1108 11.957 89.1108C14.9145 89.1108 17.8489 86.9563 17.8489 84.7439C17.8489 84.1647 17.4792 83.7825 16.89 83.7825H12.2921V79.9252H18.7616C20.9797 79.9252 22.6086 81.6975 22.6086 83.7825V93.0028H18.0799V89.3541C17.2944 91.7055 14.7759 93.2808 11.7144 93.2808C5.6146 93.2808 0 89.2151 0 81.0604V81.0488Z" fill="white"/>
<path d="M25.3697 81.0488C25.3697 74.0177 30.5453 68.8284 37.5578 68.8284C44.5702 68.8284 49.7112 74.0177 49.7112 81.0488C49.7112 88.0799 44.5356 93.2693 37.5578 93.2693C30.5799 93.2693 25.3697 88.0799 25.3697 81.0488ZM37.5231 88.8328C41.6128 88.8328 44.5702 85.52 44.5702 81.0488C44.5702 76.5776 41.6128 73.2301 37.5231 73.2301C33.4335 73.2301 30.5106 76.5776 30.5106 81.0488C30.5106 85.52 33.445 88.8328 37.5231 88.8328Z" fill="white"/>
<path d="M51.8946 81.0488C51.8946 74.0177 57.0702 68.8284 64.0827 68.8284C71.0952 68.8284 76.2361 74.0177 76.2361 81.0488C76.2361 88.0799 71.0605 93.2693 64.0827 93.2693C57.1049 93.2693 51.8946 88.0799 51.8946 81.0488ZM64.0481 88.8328C68.1377 88.8328 71.0952 85.52 71.0952 81.0488C71.0952 76.5776 68.1377 73.2301 64.0481 73.2301C59.9584 73.2301 57.0356 76.5776 57.0356 81.0488C57.0356 85.52 59.97 88.8328 64.0481 88.8328Z" fill="white"/>
<path d="M79.6673 69.0947H87.6733C94.2468 69.0947 100 72.8825 100 81.0488C100 89.215 94.2468 93.0028 87.6733 93.0028H79.6673V69.0947ZM87.165 88.5548C91.0813 88.5548 94.8244 86.6783 94.8244 81.0372C94.8244 75.3961 91.0813 73.4848 87.165 73.4848H84.7851V88.5432H87.165V88.5548Z" fill="white"/>
</g>
<defs>
<clipPath id="clip0_418_210">
<rect width="100" height="93.2692" fill="white"/>
</clipPath>
</defs>
</svg>
