<svg xmlns="http://www.w3.org/2000/svg" width="50" height="50" viewBox="0 0 50 50"><g transform="translate(-684 -935)"><rect width="50" height="50" rx="10" transform="translate(684 935)" fill="#a7a9ac"/><path d="M15.563.563a15,15,0,1,0,15,15A15,15,0,0,0,15.563.563Zm0,6.653a2.54,2.54,0,1,1-2.54,2.54A2.54,2.54,0,0,1,15.563,7.216ZM18.95,22.579a.726.726,0,0,1-.726.726H12.9a.726.726,0,0,1-.726-.726V21.127A.726.726,0,0,1,12.9,20.4h.726V16.53H12.9a.726.726,0,0,1-.726-.726V14.353a.726.726,0,0,1,.726-.726h3.871a.726.726,0,0,1,.726.726V20.4h.726a.726.726,0,0,1,.726.726Z" transform="translate(693.438 944.438)" fill="#fff"/></g></svg>