<svg width="200" height="25" viewBox="0 0 200 25" fill="none" xmlns="http://www.w3.org/2000/svg">
<g clip-path="url(#clip0_1507_1885)">
<path d="M7.83014 1.88507C6.37226 2.43731 5.08403 3.23381 4.00785 4.25334C2.90516 5.241 1.99862 6.46762 1.32535 7.89071C0.662674 9.34035 0.243864 10.9174 0.0689186 12.5795C-0.137835 14.3689 0.106028 16.1956 0.779304 18.0063C1.45258 19.8011 2.54997 21.2879 4.04496 22.4296C5.53995 23.5872 7.39543 24.1766 9.55309 24.1766C10.571 24.1766 11.4775 24.1341 12.2462 24.0438C13.0785 23.9482 13.7889 23.7889 14.319 23.6615C14.9075 23.5022 15.3528 23.3694 15.6497 23.2632H15.655L16.3548 22.9712L17.4256 22.5305L17.4522 22.3393L18.7192 13.7901H13.3807L12.9884 16.3337C12.9884 16.3337 14.2872 16.323 14.7591 16.3177C14.6795 16.939 14.2501 20.2949 14.2024 20.656C13.9108 20.7463 13.1792 20.9852 13.1792 20.9852C12.7922 21.1074 12.3787 21.187 11.8857 21.2773C11.4351 21.3569 10.958 21.3888 10.3324 21.3888C9.26682 21.3888 8.34438 21.1764 7.52266 20.7357C6.68504 20.3109 5.96936 19.7108 5.32259 18.8878C4.71823 18.1072 4.26231 17.1673 3.97074 16.1053C3.68446 15.038 3.59434 13.907 3.69506 12.6432C3.8488 10.9918 4.35244 9.4731 5.19005 8.12966C6.03297 6.7756 7.06674 5.74546 8.34968 4.9755C9.60611 4.22148 10.8572 3.85509 12.172 3.85509C13.4867 3.85509 14.6901 3.95598 15.5118 4.14714C16.2752 4.34892 17.1129 4.63566 18.0512 5.0286L18.3587 5.15604L19.138 3.31877L19.3129 2.86211L19.4296 2.55413L19.1433 2.43731L19.0267 2.38952L18.9683 2.36828L18.9471 2.35766C18.0724 1.99658 17.1977 1.70453 16.3495 1.49212C15.3051 1.22662 14.0116 1.09387 12.506 1.09387C10.8254 1.09387 9.25091 1.36468 7.81954 1.89569" fill="white"/>
<path d="M72.0564 9.28198L69.9995 23.8686H73.281L74.5003 15.1443L75.322 9.28198H72.0564Z" fill="white"/>
<path d="M86.3807 15.3885C86.5557 14.8574 86.7942 14.3158 87.0911 13.7689C87.5099 12.9777 88.0454 12.298 88.6868 11.7564C88.7027 11.7458 88.7823 11.6767 88.7823 11.6767C88.7823 11.6767 88.8777 11.5971 88.8936 11.5865C89.4184 11.2254 89.9645 11.0395 90.5105 11.0395C90.8233 11.0395 90.9664 11.1404 91.0831 11.2997C91.1626 11.4272 91.205 11.5971 91.205 11.8201C91.205 11.9104 91.1997 12.0113 91.1838 12.1228C91.0672 12.8184 90.6961 13.4344 90.0758 13.9494C89.5457 14.3583 89.042 14.6716 88.549 14.8999C88.3475 15.0008 88.1567 15.0805 87.9605 15.1495C87.4092 15.3194 86.842 15.4947 86.3065 15.6168C86.3277 15.5424 86.3489 15.4628 86.3701 15.3885M86.0892 17.8842H86.0945C86.8473 17.778 87.7008 17.5762 88.7823 17.2523L89.0791 17.1673C90.378 16.7691 91.5496 16.1584 92.5568 15.3407C93.58 14.5017 94.142 13.4397 94.2374 12.1706C94.2851 11.2413 93.9935 10.4395 93.3839 9.85009C92.7477 9.22882 91.8094 8.91553 90.5847 8.91553C89.9539 8.91553 89.2753 9.05359 88.5596 9.32971C88.2309 9.44653 87.8651 9.62176 87.3933 9.88195C86.8367 10.1793 86.3065 10.5616 85.8135 11.0077C85.2886 11.475 84.8221 11.9847 84.4298 12.5317C84.4033 12.5635 84.2973 12.691 84.2973 12.691L84.2655 12.7281C83.4862 13.8114 82.9613 15.0274 82.7122 16.3389C82.5849 17.0664 82.5213 17.7408 82.5213 18.378C82.5213 19.0152 82.5849 19.6099 82.7175 20.1675C82.9825 21.3675 83.5074 22.3021 84.3185 23.0296L84.3662 23.0721C84.3662 23.0721 84.3821 23.0721 84.3874 23.0721C84.8751 23.4703 85.3841 23.7464 85.9566 23.9057C86.508 24.081 87.1017 24.1659 87.7644 24.1659C88.0666 24.1659 88.3847 24.1394 88.7346 24.0916C89.6994 23.9323 90.5741 23.5765 91.3322 23.0349C92.313 22.3393 93.1188 21.6224 93.7179 20.8949L93.914 20.6613L92.4508 19.1692L92.2123 19.4719C92.0161 19.7214 91.7245 20.0135 91.3057 20.3799C90.8551 20.7569 90.3568 21.0702 89.7842 21.341C89.3548 21.5428 88.989 21.6702 88.6338 21.7339C88.4218 21.7658 88.1991 21.787 87.9553 21.787C87.1812 21.787 86.667 21.5375 86.3436 20.9958V20.9852C86.2641 20.8737 86.2058 20.7516 86.1581 20.6241C85.9513 20.0825 85.8506 19.4931 85.8506 18.8612C85.8506 18.5532 85.8824 18.2293 85.9301 17.9001C86.0043 17.8948 86.0892 17.8842 86.0892 17.8842Z" fill="white"/>
<path d="M74.1399 5.46928C74.1399 5.46928 74.1239 5.46928 74.1186 5.46928C74.108 5.46928 74.0974 5.46928 74.0815 5.46397L74.1399 5.47459V5.46928ZM75.7674 4.91172C75.7674 4.91172 75.7674 4.91172 75.7621 4.91703L75.7727 4.90641C75.7727 4.90641 75.7727 4.90641 75.7674 4.90641M76.43 3.58422V3.59484V3.56829C76.43 3.56829 76.43 3.5736 76.43 3.57891M76.0855 2.20892L76.0749 2.19299C76.0749 2.19299 76.0749 2.1983 76.0802 2.20361M74.0073 1.76819C73.79 1.87439 73.6097 1.99652 73.4401 2.15051C73.0213 2.5169 72.7774 2.95232 72.6979 3.47802C72.682 3.57891 72.6767 3.6798 72.6767 3.78069C72.6767 4.17363 72.788 4.52409 73.016 4.848L73.0266 4.85862L73.0372 4.86924C73.3234 5.2144 73.6892 5.41087 74.1133 5.44804C74.1982 5.46397 74.2724 5.46928 74.3466 5.46928C74.898 5.46928 75.391 5.27281 75.7621 4.89579C76.1385 4.54533 76.3717 4.08867 76.4247 3.5736C76.4407 3.46209 76.4513 3.35589 76.4513 3.24969C76.4513 2.85674 76.324 2.49035 76.0802 2.20361C75.7674 1.80005 75.3221 1.58765 74.7919 1.58765C74.5109 1.58765 74.2459 1.65137 74.0073 1.76819Z" fill="white"/>
<path d="M82.1078 0.923945C81.1589 1.51867 80.4379 2.37358 79.9661 3.45152C79.4995 4.47635 79.1443 5.78262 78.9058 7.33315C78.9058 7.33315 78.7043 8.6819 78.6195 9.28193H76.3134L75.709 11.6661H78.3385C78.2484 12.3564 77.4108 18.7763 77.4108 18.7763C77.1616 20.5657 76.8064 22.1375 76.3452 23.4385L76.1862 23.8898H79.42L79.4995 23.6615C79.9661 22.2543 80.3106 20.6719 80.5333 18.9515C80.5333 18.9515 81.3391 13.052 81.53 11.6661H84.3397L84.9441 9.28193H81.8852C81.9806 8.66066 82.3835 5.96316 82.3888 5.94192C82.5849 4.92771 82.9666 4.09403 83.518 3.46214C84.0799 2.81962 84.8274 2.51164 85.8029 2.51164C85.8029 2.51164 86.2217 2.52226 86.2588 2.52757C86.7147 2.55943 87.1176 2.62846 87.4569 2.73997L87.8068 2.8568L88.1037 1.57177L88.3634 0.403562L88.0189 0.323912L87.9128 0.292052L87.8492 0.270811C87.2767 0.127441 86.7624 0.0424802 86.2906 0.0159301C86.2959 0.0159301 85.7552 0 85.7552 0C84.2231 0 83.0303 0.302672 82.1078 0.923945Z" fill="white"/>
<path d="M29.0728 16.3761C28.813 18.0647 28.3253 19.3763 27.5778 20.3693C27.037 21.1339 26.385 21.6118 25.6481 21.803C25.4254 21.8508 25.1869 21.8773 24.9536 21.8773C23.8085 21.8773 23.0663 21.3994 22.6899 20.4064C22.2711 19.3391 22.1757 18.0647 22.4089 16.6098C22.674 14.9212 23.2094 13.5777 23.9941 12.6113C24.5613 11.9476 25.1445 11.5493 25.8283 11.3528C26.0934 11.2785 26.3956 11.236 26.7031 11.236C27.3922 11.236 27.8959 11.459 28.2829 11.9369C28.6911 12.4573 28.9614 13.1104 29.0728 13.8804C29.2 14.7035 29.2 15.5424 29.0728 16.3761ZM32.4922 13.6892V13.6733C32.2589 12.7175 31.9037 11.9263 31.4107 11.2573C30.9177 10.5404 30.255 9.9616 29.4598 9.55273C28.6858 9.14386 27.7421 8.92615 26.7402 8.92615C26.4115 8.92615 26.0775 8.94739 25.6905 9.00049C24.9801 9.09607 24.3174 9.27661 23.7184 9.54742C22.8384 9.94567 22.0537 10.5032 21.3222 11.2519C20.6118 12.0272 20.0657 12.8503 19.6946 13.7105C19.3659 14.4486 19.1115 15.2079 18.9524 15.9726L18.8464 16.5036C18.7828 16.9602 18.7563 17.401 18.7563 17.8311C18.7563 18.4576 18.8199 19.0524 18.9524 19.6152C18.9948 19.8542 19.0585 20.0825 19.138 20.3162C19.5356 21.4897 20.2301 22.4349 21.1949 23.1252C22.1492 23.8208 23.3314 24.1712 24.7097 24.1712C25.0437 24.1712 25.4042 24.1447 25.7753 24.0969C26.7826 23.9588 27.705 23.6243 28.532 23.1092C29.6453 22.4242 30.5784 21.4684 31.2994 20.2684C32.015 19.0577 32.4551 17.778 32.5982 16.4611C32.6406 16.1106 32.6671 15.7602 32.6671 15.4097C32.6671 14.8468 32.6088 14.2733 32.4975 13.6892" fill="white"/>
<path d="M43.0684 16.3762C42.8458 17.9957 42.3421 19.3392 41.5734 20.3693C41.0327 21.1499 40.4018 21.6119 39.649 21.803C39.4264 21.8561 39.1984 21.8774 38.9493 21.8774C37.8148 21.8774 37.0779 21.3995 36.7015 20.4065C36.2827 19.3817 36.1872 18.1391 36.4046 16.6045C36.6644 14.9372 37.2104 13.5884 38.0162 12.6167C38.5357 11.9795 39.1454 11.5547 39.824 11.3529C40.1103 11.2732 40.3965 11.2361 40.6934 11.2361C41.3932 11.2361 41.8968 11.4591 42.2785 11.9317C42.692 12.4255 42.9465 13.0627 43.0737 13.8805C43.1373 14.2893 43.1692 14.7088 43.1692 15.123C43.1692 15.5372 43.1373 15.962 43.0737 16.3762M46.4931 13.6787C46.3129 12.8025 45.9524 11.9848 45.4275 11.2626C44.9133 10.5351 44.2559 9.96166 43.4607 9.5581C42.6761 9.14392 41.7696 8.93152 40.7676 8.93152C40.4283 8.93152 40.0732 8.95807 39.6861 9.00586C38.997 9.09613 38.3449 9.28198 37.7458 9.55279C36.8287 9.96697 36.0229 10.5405 35.3443 11.2626C34.6498 11.9848 34.1144 12.7866 33.6956 13.7105C33.3033 14.6026 33.0276 15.5425 32.8792 16.5142C32.6671 17.8948 32.7678 19.1799 33.1654 20.3321C33.5737 21.5216 34.2522 22.4668 35.1906 23.1412C36.1607 23.8315 37.3535 24.1872 38.7319 24.1872C39.05 24.1872 39.3893 24.1607 39.771 24.1129C40.7729 23.9748 41.7007 23.6456 42.5436 23.1305C43.6834 22.4296 44.6111 21.4738 45.3109 20.2844C46.0001 19.148 46.4401 17.8736 46.6257 16.4877V16.4718C46.6628 16.1107 46.6787 15.7655 46.6787 15.4416C46.6787 14.815 46.6151 14.2469 46.4878 13.6946" fill="white"/>
<path d="M56.6506 14.5547C56.5234 14.8521 56.1682 15.6114 55.3624 16.9708C54.6573 18.1496 54.0158 19.0683 53.3478 19.8541L53.1358 20.0984L53.1252 20.109C52.1868 21.1604 51.5666 21.3834 51.2167 21.3834C50.8986 21.3834 50.66 21.2878 50.4957 21.0808C50.3154 20.863 50.1511 20.4382 50.1511 19.6364C50.1511 19.116 50.22 18.4417 50.395 17.5549C50.6017 16.5672 50.9675 15.5424 51.4764 14.5229C51.9536 13.5564 52.5367 12.7493 53.263 12.0484C53.4539 11.8891 53.6288 11.7351 53.8037 11.613C54.2544 11.2997 54.7209 11.1404 55.1821 11.1404C55.9508 11.1404 56.5605 11.2997 57.0535 11.613C57.0005 11.9847 56.6665 14.4698 56.6559 14.5547M58.5697 0.345093C58.5697 0.345093 57.5094 8.4004 57.4299 9.01637C56.8998 8.95796 56.2477 8.9261 55.4737 8.9261C54.8163 8.9261 54.1483 9.05354 53.491 9.30842C53.2312 9.404 52.9873 9.5102 52.7329 9.64295C51.8263 10.0837 50.9781 10.6996 50.1564 11.5227C49.3506 12.3564 48.6773 13.2803 48.0942 14.3423C47.5534 15.3672 47.1452 16.5194 46.8907 17.7726C46.5514 19.578 46.631 21.0277 47.124 22.2171C47.6329 23.5127 48.6667 24.1712 50.1882 24.1712C51.5082 24.1712 52.7329 23.6349 53.8409 22.5782C53.8462 22.5729 54.1483 22.2702 54.1483 22.2702C54.8428 21.5268 55.426 20.7728 55.9137 20.0081C55.6963 21.5799 55.3783 23.8738 55.3783 23.8738H58.6545L61.8937 0.313232L58.5644 0.345093H58.5697Z" fill="white"/>
<path d="M63.3038 0.318604L60.0382 23.8739H69.0558L69.4534 21.0118H63.8393C63.94 20.2684 66.6914 0.318604 66.6914 0.318604H63.2985H63.3038Z" fill="white"/>
<path d="M102.232 24.0013H104.766L105.789 16.6204H109.633L109.866 14.5601H106.054L106.733 9.69082H112.426L112.67 7.65708H104.549L102.232 24.0067V24.0013ZM125.091 9.68551H129.847L127.8 24.0013H130.228L132.285 9.68551H136.945L137.311 7.65177H125.335L125.091 9.68551ZM177.172 7.10483C176.149 7.14731 175.168 7.36502 174.362 7.81107C173.207 8.45358 172.401 9.53152 172.29 11.236C172.194 12.9459 173.191 14.199 174.362 15.3035C174.866 15.7655 175.412 16.2168 175.9 16.6416C176.828 17.4753 178.079 18.4842 178.036 19.8489C177.994 21.3463 176.95 22.265 175.518 22.5092C175.136 22.5623 174.739 22.5783 174.357 22.5517C173.133 22.4721 171.876 22.0473 170.816 21.5163L169.851 23.3429C171.24 24.1182 172.777 24.5323 174.357 24.543C174.781 24.5589 175.2 24.543 175.624 24.4899C178.116 24.15 180.321 22.2809 180.422 19.5515C180.517 17.0824 178.211 15.4841 176.51 14.0822C175.513 13.2645 174.357 12.1441 174.617 10.7953C174.845 9.54214 176.223 9.06423 177.342 9.09078C178.593 9.11733 179.669 9.42001 180.814 9.92446L181.657 8.10843C180.364 7.3013 178.646 7.05704 177.162 7.11014M150.835 19.1851L150.66 18.909L143.551 7.65177H141.536L139.236 24.0013H141.388L143.106 11.8998L150.665 23.8686L150.761 24.0067H152.394L154.694 7.65708H152.462L150.84 19.1905L150.835 19.1851ZM157.398 23.8845H166.267L166.633 21.8349H160.176L160.95 16.5036H165.244L165.615 14.4433H161.215L161.899 9.574H168.059L168.303 7.54026H159.704L157.403 23.8898L157.398 23.8845ZM190.749 9.1545C191.035 9.1014 191.322 9.07485 191.592 9.08547C192.843 9.11202 193.909 9.4147 195.054 9.91915L195.902 8.10312C194.619 7.29599 192.901 7.05173 191.406 7.10483C191.189 7.12076 190.972 7.13138 190.754 7.15793C189.827 7.26944 188.968 7.54026 188.263 8.01816C187.653 8.44296 187.144 9.01644 186.847 9.76516C186.683 10.2006 186.577 10.6785 186.55 11.236C186.508 11.8785 186.63 12.4627 186.847 12.999C187.16 13.7371 187.68 14.3796 188.263 14.9637C188.862 15.5637 189.53 16.1106 190.155 16.6416C190.346 16.8169 190.553 16.9974 190.754 17.1886C191.544 17.9107 192.318 18.771 192.292 19.8489C192.249 20.9693 191.65 21.7711 190.754 22.1959C190.452 22.3446 190.129 22.4561 189.758 22.5092C189.27 22.5783 188.761 22.5783 188.257 22.5092C187.78 22.4561 187.303 22.3605 186.842 22.2225C186.232 22.0313 185.617 21.7871 185.071 21.5163L184.091 23.3429C184.96 23.8367 185.888 24.1766 186.842 24.3677C187.303 24.4633 187.78 24.5164 188.257 24.543C188.788 24.5695 189.334 24.543 189.864 24.4899C190.166 24.4474 190.463 24.3784 190.749 24.2987C192.875 23.6827 194.593 21.9517 194.672 19.5462C194.752 17.0771 192.467 15.4787 190.749 14.0769C189.768 13.2592 188.607 12.1387 188.856 10.79C189.031 9.83419 189.88 9.32974 190.749 9.14919M116.148 23.996H118.682L119.785 15.8239L120.887 7.65177H118.449L116.148 24.0013V23.996Z" fill="white"/>
<path d="M198.335 9.03771H198.494C198.691 9.03771 198.844 8.97399 198.844 8.80938C198.844 8.67663 198.749 8.57574 198.521 8.57574C198.441 8.57574 198.383 8.57574 198.335 8.58105V9.03771ZM198.335 9.95104H198.001V8.36334C198.129 8.3421 198.266 8.32086 198.51 8.32086C198.781 8.32086 198.945 8.36334 199.056 8.4483C199.146 8.51733 199.194 8.62884 199.194 8.79345C199.194 8.98461 199.062 9.11736 198.892 9.15984V9.17577C199.03 9.20232 199.12 9.32976 199.146 9.56341C199.178 9.81298 199.21 9.90856 199.237 9.95635H198.887C198.85 9.89794 198.823 9.75988 198.791 9.54216C198.765 9.37224 198.664 9.30321 198.494 9.30321H198.341V9.95635L198.335 9.95104ZM198.579 7.97571C197.985 7.97571 197.503 8.49078 197.503 9.12267C197.503 9.75457 197.985 10.2643 198.585 10.2643C199.189 10.2696 199.677 9.76519 199.677 9.12267C199.677 8.48016 199.189 7.97571 198.585 7.97571H198.579ZM198.59 7.68896C199.374 7.68896 200 8.33148 200 9.11736C200 9.90325 199.374 10.5511 198.579 10.5511C197.784 10.5511 197.153 9.91918 197.153 9.11736C197.153 8.31555 197.795 7.68896 198.579 7.68896H198.585H198.59Z" fill="white"/>
</g>
<defs>
<clipPath id="clip0_1507_1885">
<rect width="200" height="24.5536" fill="white"/>
</clipPath>
</defs>
</svg>
