<svg xmlns="http://www.w3.org/2000/svg" width="150" height="76.197" viewBox="0 0 150 76.197"><g transform="translate(75 38.099)"><g transform="translate(-75 -38.099)"><path d="M.843,45.062a.874.874,0,0,0,0,1.746H149.109a.874.874,0,0,0,0-1.746Z" transform="translate(0 29.389)" fill="#fff"/><path d="M2.554,50.924H6.387L7.932,39.774h5.812l.35-3.114H8.325L9.356,29.3h8.613l.372-3.071H6.058ZM37.137,29.3h7.2L41.242,50.924h3.668L48.02,29.3h7.05l.557-3.071H37.509Zm78.793-3.9a9.543,9.543,0,0,0-4.248,1.071,5.964,5.964,0,0,0-3.134,5.173c-.142,2.579,1.361,4.476,3.134,6.144.762.7,1.586,1.381,2.328,2.021,1.4,1.257,3.3,2.781,3.235,4.843-.059,2.265-1.647,3.648-3.81,4.02a8.42,8.42,0,0,1-1.753.061,14.5,14.5,0,0,1-5.358-1.566l-1.464,2.762a14.2,14.2,0,0,0,6.822,1.812,12.014,12.014,0,0,0,1.917-.083c3.772-.515,7.111-3.339,7.256-7.46.142-3.732-3.341-6.143-5.916-8.266-1.5-1.236-3.256-2.928-2.865-4.966.35-1.9,2.432-2.617,4.122-2.577a13.31,13.31,0,0,1,5.256,1.257l1.279-2.741a12.41,12.41,0,0,0-6.8-1.505M76.1,43.65l-.268-.416-10.759-17H62.021L58.538,50.924h3.255l2.6-18.283L75.832,50.718l.144.207h2.473l3.483-24.694h-3.38Zm9.931,7.1H99.45L100,47.656H90.237L91.41,39.6H97.9l.557-3.114H91.8l1.031-7.357h9.317l.372-3.071H89.513ZM136.485,28.5a5.523,5.523,0,0,1,1.275-.1A13.224,13.224,0,0,1,143,29.652l1.279-2.741a12.342,12.342,0,0,0-6.8-1.505c-.327.023-.661.043-.988.083a8.506,8.506,0,0,0-3.774,1.3,5.811,5.811,0,0,0-2.145,2.64,7.275,7.275,0,0,0-.451,2.224,5.935,5.935,0,0,0,.451,2.66,9.669,9.669,0,0,0,2.145,2.969c.907.905,1.918,1.733,2.867,2.536.287.268.6.534.907.823,1.193,1.092,2.368,2.392,2.328,4.02a3.921,3.921,0,0,1-2.328,3.546,4.968,4.968,0,0,1-1.507.474,8.535,8.535,0,0,1-2.267,0,12.405,12.405,0,0,1-2.145-.436,18.133,18.133,0,0,1-2.678-1.069l-1.482,2.762a14.111,14.111,0,0,0,4.16,1.545,14.715,14.715,0,0,0,2.145.268,15.745,15.745,0,0,0,2.432-.083,9.719,9.719,0,0,0,1.342-.286,7.813,7.813,0,0,0,5.935-7.174c.124-3.732-3.339-6.143-5.935-8.266-1.484-1.236-3.238-2.928-2.867-4.966a3.323,3.323,0,0,1,2.867-2.475M23.618,50.924h3.835l1.667-12.347,1.67-12.347H27.1Z" transform="translate(1.666 16.563)" fill="#fff"/><path d="M103.426.806H99.237l-4.9,35.3h12.887l.468-3.367H99.018ZM89.005,22.4a36.234,36.234,0,0,1-2.05,3.855,34.281,34.281,0,0,1-3.162,4.522c-.112.135-.225.268-.359.4-1.272,1.426-2.406,2.14-3.342,2.14-2.072,0-2.653-2.186-1.783-6.531a19.835,19.835,0,0,1,1.717-4.813A13.994,13.994,0,0,1,82.9,18.01a10.705,10.705,0,0,1,.894-.712,4.22,4.22,0,0,1,2.425-.826,5.622,5.622,0,0,1,3.455.98ZM91.913.846,90.142,14.29a23.9,23.9,0,0,0-3.478-.2,7.935,7.935,0,0,0-2.871.553,8.748,8.748,0,0,0-1.115.491,14.23,14.23,0,0,0-3.856,2.81,19.676,19.676,0,0,0-3.1,4.231,19.286,19.286,0,0,0-1.806,5.15,11.453,11.453,0,0,0,.334,6.551,4.141,4.141,0,0,0,4.258,2.693,7.518,7.518,0,0,0,5.282-2.315c.154-.157.312-.312.466-.468a22.124,22.124,0,0,0,4.01-5.864L87.133,36.1h4.01L96,.808Zm-29.576,33.1a5.232,5.232,0,0,1-1.2.132,3.853,3.853,0,0,1-3.965-2.6,11.854,11.854,0,0,1-.492-6.13,13.124,13.124,0,0,1,2.607-6.417,6.167,6.167,0,0,1,3.053-2.118,5.612,5.612,0,0,1,1.494-.2,3.414,3.414,0,0,1,2.855,1.269,6.418,6.418,0,0,1,1.335,3.253,13.49,13.49,0,0,1,0,4.011,13.669,13.669,0,0,1-2.407,6.4,5.578,5.578,0,0,1-3.276,2.406M70.516,30.8a14.445,14.445,0,0,0,1.961-5.66,12.824,12.824,0,0,0-.2-4.124,9.217,9.217,0,0,0-1.561-3.541A7.8,7.8,0,0,0,67.864,15a8.294,8.294,0,0,0-3.924-.912,12.5,12.5,0,0,0-1.6.109,10.22,10.22,0,0,0-2.853.8A11.067,11.067,0,0,0,55.94,17.52a12.742,12.742,0,0,0-2.45,3.633,16.678,16.678,0,0,0-1.224,4.188,11.563,11.563,0,0,0,.423,5.637,8.052,8.052,0,0,0,2.941,4.079A8.667,8.667,0,0,0,60.8,36.569a11.721,11.721,0,0,0,1.537-.111,10.431,10.431,0,0,0,4.078-1.446,12.008,12.008,0,0,0,4.1-4.213m-35,.671a11.648,11.648,0,0,1-.468-6.13,13.328,13.328,0,0,1,2.563-6.417,6.382,6.382,0,0,1,3.1-2.118,5.479,5.479,0,0,1,1.494-.2,3.455,3.455,0,0,1,2.85,1.269,6.769,6.769,0,0,1,1.337,3.253,13.381,13.381,0,0,1,0,4.011,14.124,14.124,0,0,1-2.406,6.4,5.787,5.787,0,0,1-3.275,2.406,5.546,5.546,0,0,1-1.2.132,3.887,3.887,0,0,1-3.99-2.6m9.246,3.542A12.193,12.193,0,0,0,48.864,30.8a14.071,14.071,0,0,0,1.936-5.66,12.866,12.866,0,0,0-.155-4.124,9.67,9.67,0,0,0-1.581-3.541A7.611,7.611,0,0,0,46.232,15a8.47,8.47,0,0,0-3.967-.912,12.071,12.071,0,0,0-1.558.109,10.317,10.317,0,0,0-2.9.8,11.551,11.551,0,0,0-3.542,2.518,12.973,12.973,0,0,0-2.406,3.633,16.534,16.534,0,0,0-1.115,3.387c-.066.268-.112.534-.159.8a12.706,12.706,0,0,0,.159,4.611,7.415,7.415,0,0,0,.268,1.026A8.127,8.127,0,0,0,34,35.057a8.577,8.577,0,0,0,5.127,1.512,12.121,12.121,0,0,0,1.583-.111,10.186,10.186,0,0,0,4.051-1.446m78.55,1.133a38.482,38.482,0,0,0,1.575-7.174l1.606-11.7h4.388l.671-2.63H126.89l.867-5.769A8.521,8.521,0,0,1,129.629,4.8a4.933,4.933,0,0,1,3.924-1.649c.266,0,.512.021.732.021a7.969,7.969,0,0,1,1.988.357L136.6,2.1,136.9.808A1.55,1.55,0,0,1,136.6.717a13,13,0,0,0-2.32-.38c-.268-.02-.534-.02-.8-.02a9.455,9.455,0,0,0-5.35,1.335,8.053,8.053,0,0,0-3.121,3.679,22.588,22.588,0,0,0-1.6,5.86l-.512,3.451h-3.613l-.666,2.63h3.988L121.1,28.839a38.006,38.006,0,0,1-1.669,7.3ZM115.571,7.714a1.127,1.127,0,0,0,.289.023A2.512,2.512,0,0,0,117.687,7a2.676,2.676,0,0,0,.869-1.736,2.022,2.022,0,0,0-.423-1.717,1.91,1.91,0,0,0-1.581-.758,2.189,2.189,0,0,0-.981.221,3.358,3.358,0,0,0-.758.514,2.8,2.8,0,0,0-.98,1.74,2.34,2.34,0,0,0,.4,1.736,1.846,1.846,0,0,0,1.337.712m22.106,9.827c.112-.089.245-.2.359-.287a4.9,4.9,0,0,1,2.807-.938,1.488,1.488,0,0,1,1.315.626,2.39,2.39,0,0,1,.246,1.649,5.12,5.12,0,0,1-1.9,3.141,13.046,13.046,0,0,1-2.47,1.537,7.3,7.3,0,0,1-.958.4,28.458,28.458,0,0,1-3.123.846c-.109.023-.2.043-.309.064a12.133,12.133,0,0,1,.309-1.2,15.1,15.1,0,0,1,1.138-2.582,10.871,10.871,0,0,1,2.584-3.255m-5.8,1.915c-.084.093-.152.2-.245.292a13.469,13.469,0,0,0-2.315,5.366,14.3,14.3,0,0,0,0,5.685,7.455,7.455,0,0,0,2.315,4.145c.025,0,.046.02.069.045a6.086,6.086,0,0,0,2.249,1.2,8.791,8.791,0,0,0,2.653.377,9.906,9.906,0,0,0,1.427-.111,8.9,8.9,0,0,0,3.787-1.535,18.355,18.355,0,0,0,3.589-3.209L143.9,30.177a11.312,11.312,0,0,1-3.945,3.032,7.359,7.359,0,0,1-1.915.646,6.782,6.782,0,0,1-1.137.088,3.15,3.15,0,0,1-2.944-1.47,3.006,3.006,0,0,1-.33-.669,8.992,8.992,0,0,1-.316-4.859l.646-.064a28.8,28.8,0,0,0,4.081-.958l.466-.134a15.212,15.212,0,0,0,5.194-2.721,6.24,6.24,0,0,0,2.4-4.52,3.937,3.937,0,0,0-1.158-3.166,5.471,5.471,0,0,0-3.965-1.29,8.232,8.232,0,0,0-2.939.6,11.619,11.619,0,0,0-1.738.824,11.9,11.9,0,0,0-2.343,1.669,14.042,14.042,0,0,0-2.073,2.272m-16.31,3.633,1.18-8.446h-3.987L109.732,36.1h4.011Zm-88.162,11.1L29.281,21.6h-7.2l-.444,2.875,2.719-.025-.981,7.62c-.669.2-1.294.4-1.893.6a16.954,16.954,0,0,1-2.073.468,14.781,14.781,0,0,1-2.495.178,9.569,9.569,0,0,1-4.59-1.072,10.624,10.624,0,0,1-3.567-2.985,12.887,12.887,0,0,1-2.183-4.479A16.51,16.51,0,0,1,8.513,12.059,14.978,14.978,0,0,1,13.57,7.023a11.845,11.845,0,0,1,6.174-1.8,24.265,24.265,0,0,1,5.28.466,31.972,31.972,0,0,1,4.01,1.383l1-2.363.269-.692c-.089-.045-.178-.066-.269-.112A28.16,28.16,0,0,0,26.092,2.59a23.9,23.9,0,0,0-5.814-.6,20.284,20.284,0,0,0-7.063,1.2A16.933,16.933,0,0,0,7.488,6.734a17.014,17.014,0,0,0-4.035,5.459A22.6,22.6,0,0,0,1.56,19.258,17.307,17.307,0,0,0,2.631,27.39a14.53,14.53,0,0,0,4.879,6.6,13.023,13.023,0,0,0,8.2,2.584,36.7,36.7,0,0,0,4.1-.2,25.236,25.236,0,0,0,3.142-.58c.891-.243,1.56-.444,2.006-.6.444-.178,1.249-.512,2.45-1" transform="translate(0.948 0.207)" fill="#fff"/><path d="M8.036,33.119a14.068,14.068,0,0,1-4.709-6.366,16.844,16.844,0,0,1-1.041-7.889,22.043,22.043,0,0,1,1.85-6.906A16.532,16.532,0,0,1,8.043,6.672a16.49,16.49,0,0,1,5.563-3.445,19.763,19.763,0,0,1,6.88-1.17,23.593,23.593,0,0,1,5.685.587A27.343,27.343,0,0,1,29.84,3.854c-.036.089-.083.211-.083.211s-.507,1.193-.8,1.877a30.983,30.983,0,0,0-3.6-1.214,24.711,24.711,0,0,0-5.413-.482,12.44,12.44,0,0,0-6.444,1.877A15.415,15.415,0,0,0,8.274,11.33a16.829,16.829,0,0,0-2.462,7.427,16.6,16.6,0,0,0,.464,5.71A13.39,13.39,0,0,0,8.55,29.129a11.128,11.128,0,0,0,3.744,3.133A10.131,10.131,0,0,0,17.12,33.39,15.027,15.027,0,0,0,19.7,33.2a16.793,16.793,0,0,0,2.14-.484l2.207-.7.05-.332,1.057-8.218-2.7.025c.094-.608.21-1.347.283-1.824H28.88c-.159,1.062-1.659,11.162-1.738,11.7l-1.11.456-1.051.428c-.433.15-1.094.349-1.961.587a25.387,25.387,0,0,1-3.063.563,35.935,35.935,0,0,1-4.041.2,12.569,12.569,0,0,1-7.879-2.477m5.2-30.871A17.479,17.479,0,0,0,7.336,5.9a17.577,17.577,0,0,0-4.149,5.612,23.138,23.138,0,0,0-1.94,7.237,17.849,17.849,0,0,0,1.1,8.37A15.085,15.085,0,0,0,7.4,33.948a13.579,13.579,0,0,0,8.515,2.691,37.3,37.3,0,0,0,4.16-.2,26.708,26.708,0,0,0,3.207-.59c.91-.251,1.6-.454,2.054-.613l.013-.007,1.081-.441,1.659-.681.045-.294,1.959-13.188H21.84l-.608,3.924,2.734-.023c-.122.965-.79,6.141-.861,6.7l-1.583.5a16.024,16.024,0,0,1-2,.448,13.947,13.947,0,0,1-2.406.172,8.984,8.984,0,0,1-4.344-1.011,10.105,10.105,0,0,1-3.4-2.848,12.37,12.37,0,0,1-2.09-4.292A15.976,15.976,0,0,1,9.163,11.883a14.377,14.377,0,0,1,4.882-4.864,11.254,11.254,0,0,1,5.9-1.73,24.106,24.106,0,0,1,5.161.454A30.976,30.976,0,0,1,29.04,7.1l.479.2,1.206-2.84c.007-.015.274-.707.274-.707l.185-.474-.441-.183-.177-.074-.088-.036-.035-.017A28.836,28.836,0,0,0,26.427,1.63a24.587,24.587,0,0,0-5.941-.618,20.8,20.8,0,0,0-7.246,1.236" transform="translate(0.742 0.66)" fill="#fff"/><path d="M73.645,9.718l-1.1,7.851S70.9,29.293,70.786,30.134H67.83c.157-1.1,2.767-19.578,2.885-20.416Zm-3.84-1.046L66.627,31.18h5.067l1.89-13.465,1.264-9.042Z" transform="translate(43.453 5.656)" fill="#fff"/><path d="M83.363,27.529l0-.008,0-.008Zm-1.33-12.851.119-.145a13.373,13.373,0,0,1,1.994-2.186,11.434,11.434,0,0,1,2.245-1.6,10.925,10.925,0,0,1,1.665-.791,7.745,7.745,0,0,1,2.764-.572,5,5,0,0,1,3.6,1.143,3.353,3.353,0,0,1,1.008,2.506c0,.083,0,.169-.007.254a5.763,5.763,0,0,1-2.212,4.145A14.61,14.61,0,0,1,88.2,20.058l-.459.132a27.975,27.975,0,0,1-4,.94l-1.021.1-.071.385a11.269,11.269,0,0,0-.2,2.062,8.7,8.7,0,0,0,.537,3.076,3.608,3.608,0,0,0,.378.763,3.672,3.672,0,0,0,3.385,1.717,7.54,7.54,0,0,0,1.223-.094,7.9,7.9,0,0,0,2.055-.691A11.915,11.915,0,0,0,92.6,26.82a14.847,14.847,0,0,0,1.16-1.1l.775.785a18.661,18.661,0,0,1-3.172,2.766,8.347,8.347,0,0,1-3.57,1.447,9.608,9.608,0,0,1-1.342.1,8.2,8.2,0,0,1-2.5-.355,5.585,5.585,0,0,1-2.072-1.105l-.051-.043.1.086-.448-.208.347.134a6.988,6.988,0,0,1-2.153-3.868,11.229,11.229,0,0,1-.274-2.533,17.143,17.143,0,0,1,.279-2.949,12.924,12.924,0,0,1,2.225-5.152c.053-.064.126-.147.126-.147m5.66-5.7a11.772,11.772,0,0,0-1.8.856,12.462,12.462,0,0,0-2.44,1.738,14.43,14.43,0,0,0-2.141,2.346l-.2.245-.048.055a14,14,0,0,0-2.406,5.574,18.287,18.287,0,0,0-.3,3.144,12.154,12.154,0,0,0,.3,2.759,7.983,7.983,0,0,0,2.477,4.416l.071.064.03.007a6.6,6.6,0,0,0,2.422,1.289,9.206,9.206,0,0,0,2.8.4,10.286,10.286,0,0,0,1.5-.117,9.494,9.494,0,0,0,4.015-1.627,19.1,19.1,0,0,0,3.689-3.3l.3-.365-2.267-2.3-.367.468a10.8,10.8,0,0,1-3.757,2.883,6.869,6.869,0,0,1-1.781.6,6.474,6.474,0,0,1-1.047.079,2.627,2.627,0,0,1-2.495-1.218l-.01-.017a2.5,2.5,0,0,1-.276-.557,7.677,7.677,0,0,1-.474-2.721,10.084,10.084,0,0,1,.126-1.484l.249-.026h.01a28.836,28.836,0,0,0,4.157-.975l.461-.132a15.835,15.835,0,0,0,5.378-2.817,6.767,6.767,0,0,0,2.6-4.889A4.485,4.485,0,0,0,95.15,9.776a5.985,5.985,0,0,0-4.329-1.439,8.771,8.771,0,0,0-3.128.636" transform="translate(51.103 5.437)" fill="#fff"/><path d="M88.931,10.731a.973.973,0,0,1,.884.4,1.455,1.455,0,0,1,.19.806,4.113,4.113,0,0,1-.03.469A4.628,4.628,0,0,1,88.26,15.22a12.57,12.57,0,0,1-2.354,1.465,7.059,7.059,0,0,1-.909.38c-.849.266-1.728.534-2.556.722.031-.117.061-.238.1-.355a14.729,14.729,0,0,1,1.1-2.493A10.31,10.31,0,0,1,86.1,11.832c.02-.015.15-.121.15-.121s.149-.119.173-.14a4.417,4.417,0,0,1,2.5-.839m-3.1-.018-.017.012-.22.177-.162.132a11.333,11.333,0,0,0-2.711,3.408,15.819,15.819,0,0,0-1.171,2.667c-.142.431-.238.869-.324,1.254l-.173.786,1.1-.228a29.151,29.151,0,0,0,3.177-.859,8.358,8.358,0,0,0,1.036-.433,13.445,13.445,0,0,0,2.556-1.593,5.646,5.646,0,0,0,2.093-3.471l0-.021a2.855,2.855,0,0,0-.329-2l0-.01-.01-.012a2.019,2.019,0,0,0-1.736-.838,5.444,5.444,0,0,0-3.1,1.029" transform="translate(52.859 6.316)" fill="#fff"/><path d="M71.387,7.468a.2.2,0,0,0-.033-.007c-.02,0-.036,0-.055-.01Zm2.521-.857-.01.008.017-.017-.007.008m1.023-2.045,0,.021,0-.04,0,.018M74.4,2.45l.008.008-.017-.02.008.012m-4.21,2.437a2.228,2.228,0,0,1,.023-.324,2.27,2.27,0,0,1,.806-1.414,2.762,2.762,0,0,1,.646-.438,1.65,1.65,0,0,1,.748-.169,1.384,1.384,0,0,1,1.166.555l.008.012.008.008A1.529,1.529,0,0,1,73.9,4.4l0,.02,0,.018a2.134,2.134,0,0,1-.7,1.4l-.008.008-.008.007a2.008,2.008,0,0,1-1.459.583.973.973,0,0,1-.159-.007l-.043-.012-.045,0a1.333,1.333,0,0,1-.962-.511,1.757,1.757,0,0,1-.322-1.026m1.008-3.111a3.8,3.8,0,0,0-.874.591,3.311,3.311,0,0,0-1.147,2.047,3.535,3.535,0,0,0-.033.468,2.808,2.808,0,0,0,.52,1.649l.013.018.015.017a2.376,2.376,0,0,0,1.665.9,1.76,1.76,0,0,0,.362.03,3.046,3.046,0,0,0,2.192-.881,3.206,3.206,0,0,0,1.023-2.045,3.019,3.019,0,0,0,.045-.5A2.477,2.477,0,0,0,74.4,2.45,2.428,2.428,0,0,0,72.41,1.5a2.69,2.69,0,0,0-1.216.279" transform="translate(45.092 0.976)" fill="#fff"/><path d="M77.367,15.374l.578-3.9a22.119,22.119,0,0,1,1.563-5.722A7.565,7.565,0,0,1,82.432,2.3,8.893,8.893,0,0,1,87.5,1.047l.757.018a11.956,11.956,0,0,1,2.032.321c-.086.377-.18.8-.18.8s-.114.484-.208.891a9.3,9.3,0,0,0-1.568-.228h-.008l-.332-.01-.426-.012a5.487,5.487,0,0,0-4.316,1.824,9.064,9.064,0,0,0-1.993,4.325l0,.021-.96,6.371h4.593l-.4,1.584H80.046L78.378,29.11a38.37,38.37,0,0,1-1.444,6.721l-2.779,0a39.724,39.724,0,0,0,1.472-6.708l1.6-12.16H73.309c.149-.591.3-1.18.4-1.584ZM81.861,1.426a8.569,8.569,0,0,0-3.308,3.9,23.13,23.13,0,0,0-1.642,5.991s-.307,2.078-.446,3.009H72.9L71.964,18H76.03c-.139,1.064-1.437,10.974-1.437,10.974a37.591,37.591,0,0,1-1.644,7.2l-.246.7,5,.007.119-.359a38.992,38.992,0,0,0,1.6-7.271s1.247-9.1,1.541-11.243H85.3l.937-3.676H81.512c.144-.962.772-5.122.777-5.153a8.02,8.02,0,0,1,1.75-3.828,4.427,4.427,0,0,1,3.529-1.47s.648.02.7.023a7.449,7.449,0,0,1,1.852.329l.545.18.461-1.983.406-1.8L91,.5,90.84.453l-.1-.036A13.406,13.406,0,0,0,88.332.023L87.5,0a9.885,9.885,0,0,0-5.641,1.426" transform="translate(46.934)" fill="#fff"/><path d="M33.793,30.228l0,0ZM19,24.844l0-.023Zm1.018-5.409a16.187,16.187,0,0,1,1.084-3.3,12.54,12.54,0,0,1,2.315-3.493,10.989,10.989,0,0,1,3.372-2.4,9.824,9.824,0,0,1,2.751-.76,11.322,11.322,0,0,1,1.49-.106,8,8,0,0,1,3.722.851,7.1,7.1,0,0,1,2.643,2.308,9.119,9.119,0,0,1,1.5,3.357,12.73,12.73,0,0,1,.243,2.442,12.064,12.064,0,0,1-.094,1.5,13.562,13.562,0,0,1-1.87,5.459,11.584,11.584,0,0,1-3.927,4.035l0,0a9.71,9.71,0,0,1-3.846,1.371,11.429,11.429,0,0,1-1.512.107A8.015,8.015,0,0,1,23.065,29.4a7.588,7.588,0,0,1-2.8-3.823,7.013,7.013,0,0,1-.248-.952l0-.012,0-.012a11.094,11.094,0,0,1-.281-2.534,14.091,14.091,0,0,1,.132-1.887l.147-.748M29.4,8.451a10.837,10.837,0,0,0-3.045.844,12.009,12.009,0,0,0-3.7,2.63,13.577,13.577,0,0,0-2.513,3.79A17.113,17.113,0,0,0,18.994,19.2v0l-.162.824a15.465,15.465,0,0,0-.142,2.049,12.156,12.156,0,0,0,.3,2.756,7.976,7.976,0,0,0,.286,1.085,8.622,8.622,0,0,0,3.175,4.339,9.047,9.047,0,0,0,5.429,1.611,12.787,12.787,0,0,0,1.654-.116,10.8,10.8,0,0,0,4.258-1.52A12.791,12.791,0,0,0,38.07,25.84a14.594,14.594,0,0,0,2.011-5.874,13.047,13.047,0,0,0,.1-1.624,13.8,13.8,0,0,0-.264-2.657l0-.023a10.128,10.128,0,0,0-1.67-3.729A8.087,8.087,0,0,0,35.23,9.307a9.017,9.017,0,0,0-4.2-.97,12.518,12.518,0,0,0-1.626.114" transform="translate(12.189 5.437)" fill="#fff"/><path d="M22.051,25.44l0,0Zm.976-.38,0,0a11.181,11.181,0,0,1-.439-5.857,12.821,12.821,0,0,1,2.452-6.168,5.8,5.8,0,0,1,2.838-1.945,4.935,4.935,0,0,1,1.35-.182,2.929,2.929,0,0,1,2.445,1.079,6.3,6.3,0,0,1,1.224,3,12.882,12.882,0,0,1,0,3.855A13.576,13.576,0,0,1,30.586,25,5.292,5.292,0,0,1,27.6,27.213a5.044,5.044,0,0,1-1.074.117,3.369,3.369,0,0,1-3.5-2.27m4.56-14.979a6.911,6.911,0,0,0-3.352,2.278,13.79,13.79,0,0,0-2.68,6.678,15.328,15.328,0,0,0-.2,2.442,10.775,10.775,0,0,0,.7,3.959,4.431,4.431,0,0,0,4.477,2.938,6.157,6.157,0,0,0,1.317-.144,6.318,6.318,0,0,0,3.589-2.615A14.578,14.578,0,0,0,33.93,19a13.989,13.989,0,0,0,0-4.168,7.322,7.322,0,0,0-1.446-3.5,3.956,3.956,0,0,0-3.26-1.469,6.049,6.049,0,0,0-1.637.221" transform="translate(13.924 6.431)" fill="#fff"/><path d="M51.175,25.842l0,0,0,0M36.147,29.4A7.561,7.561,0,0,1,33.4,25.579a10.955,10.955,0,0,1-.4-5.388,16.158,16.158,0,0,1,1.185-4.058,12.132,12.132,0,0,1,2.351-3.481,10.5,10.5,0,0,1,3.379-2.4,9.785,9.785,0,0,1,2.71-.762,12.175,12.175,0,0,1,1.533-.1,7.781,7.781,0,0,1,3.678.851,7.327,7.327,0,0,1,2.67,2.313,8.692,8.692,0,0,1,1.475,3.346,11,11,0,0,1,.268,2.477c0,.468-.026.96-.074,1.479A13.8,13.8,0,0,1,50.282,25.3l0,.007a11.522,11.522,0,0,1-3.922,4.031,9.954,9.954,0,0,1-3.876,1.373,10.9,10.9,0,0,1-1.465.107A8.194,8.194,0,0,1,36.147,29.4m6.336-20.95a10.759,10.759,0,0,0-3,.844,11.561,11.561,0,0,0-3.711,2.637,13.213,13.213,0,0,0-2.546,3.775,17.245,17.245,0,0,0-1.266,4.325,12.156,12.156,0,0,0,.448,5.888,8.58,8.58,0,0,0,3.131,4.332,9.221,9.221,0,0,0,5.474,1.611,12.235,12.235,0,0,0,1.608-.116,11.019,11.019,0,0,0,4.281-1.52,12.533,12.533,0,0,0,4.274-4.388,14.987,14.987,0,0,0,2.032-5.86l0-.021c.051-.56.078-1.089.078-1.593a11.835,11.835,0,0,0-.291-2.7,9.711,9.711,0,0,0-1.646-3.731,8.348,8.348,0,0,0-3.038-2.632,8.806,8.806,0,0,0-4.16-.97,12.843,12.843,0,0,0-1.67.114" transform="translate(20.736 5.437)" fill="#fff"/><path d="M36.133,25.06a11.265,11.265,0,0,1-.461-5.869,12.553,12.553,0,0,1,2.491-6.156,5.671,5.671,0,0,1,2.8-1.95,5.051,5.051,0,0,1,1.347-.182,2.894,2.894,0,0,1,2.447,1.074,5.925,5.925,0,0,1,1.226,3.005,12.848,12.848,0,0,1,.144,1.92,13.146,13.146,0,0,1-.144,1.935A13.2,13.2,0,0,1,43.671,25a5.071,5.071,0,0,1-2.977,2.211,4.754,4.754,0,0,1-1.082.119,3.355,3.355,0,0,1-3.478-2.27m4.544-14.98a6.7,6.7,0,0,0-3.321,2.29,13.576,13.576,0,0,0-2.718,6.668,12.26,12.26,0,0,0,.524,6.407,4.352,4.352,0,0,0,4.449,2.931,5.808,5.808,0,0,0,1.322-.145l.007,0a6.129,6.129,0,0,0,3.58-2.615,14.205,14.205,0,0,0,2.5-6.625,13.989,13.989,0,0,0,0-4.16,6.927,6.927,0,0,0-1.451-3.509A3.909,3.909,0,0,0,42.307,9.86a6.071,6.071,0,0,0-1.631.22" transform="translate(22.471 6.431)" fill="#fff"/><path d="M67.127,1.351C66.969,2.5,62.529,34.732,62.41,35.6H59.458l1.052-7.587-.993-.287A21.534,21.534,0,0,1,55.6,33.447l-.221.221-.233.233a7.027,7.027,0,0,1-4.91,2.161A3.636,3.636,0,0,1,46.462,33.7a10.9,10.9,0,0,1-.306-6.262,18.747,18.747,0,0,1,1.755-5,18.877,18.877,0,0,1,3.012-4.114,13.568,13.568,0,0,1,3.706-2.7,8.088,8.088,0,0,1,1.062-.471,7.476,7.476,0,0,1,2.7-.522,23.472,23.472,0,0,1,3.4.193l.53.081L64.1,1.379c.6-.007,2.265-.021,3.032-.028M63.177.342S61.54,12.77,61.414,13.721a27.937,27.937,0,0,0-3.025-.14,8.521,8.521,0,0,0-3.063.59,8.886,8.886,0,0,0-1.17.517,14.623,14.623,0,0,0-3.98,2.9,20,20,0,0,0-3.185,4.35,19.8,19.8,0,0,0-1.86,5.3,11.878,11.878,0,0,0,.363,6.858,4.637,4.637,0,0,0,4.74,3.015,8.046,8.046,0,0,0,5.644-2.46c.008-.01.476-.477.476-.477a24.826,24.826,0,0,0,2.731-3.489c-.337,2.422-.829,5.963-.829,5.963h5.067l5-36.35Z" transform="translate(29.225 0.192)" fill="#fff"/><path d="M53.828,25.379l.008-.01-.008.01m.008-.01.012-.012-.012.012m.276-13.812a3.721,3.721,0,0,1,2.13-.732,5.254,5.254,0,0,1,2.89.727c-.078.577-.595,4.4-.613,4.535a35.145,35.145,0,0,1-1.991,3.732,33.235,33.235,0,0,1-3.113,4.449l-.33.373-.018.02c-1.449,1.624-2.406,1.964-2.952,1.964A1.344,1.344,0,0,1,49,26.16a3.486,3.486,0,0,1-.534-2.229,16.741,16.741,0,0,1,.378-3.21,19.427,19.427,0,0,1,1.672-4.681,13.424,13.424,0,0,1,2.761-3.817c.291-.248.568-.482.836-.667m-.6-.859a11.652,11.652,0,0,0-.933.745l-.012.01-.012.01a14.626,14.626,0,0,0-2.981,4.112,20.5,20.5,0,0,0-1.76,4.935c-.634,3.172-.514,5.237.37,6.316a2.368,2.368,0,0,0,1.925.846c1.1,0,2.353-.773,3.716-2.295l.388-.436a34.131,34.131,0,0,0,3.207-4.586,37.6,37.6,0,0,0,2.085-3.921l.026-.064.719-5.322-.246-.183a6.174,6.174,0,0,0-3.767-1.085,4.74,4.74,0,0,0-2.726.919" transform="translate(30.926 6.378)" fill="#fff"/><path d="M66.4,1.343c-.157,1.143-4.41,31.933-4.41,31.933h8.674c-.093.672-.248,1.779-.322,2.321H58.511c.157-1.137,4.633-33.392,4.753-34.255ZM62.354.3,57.31,36.641H71.251l.615-4.411H63.19C63.347,31.086,67.6.3,67.6.3Z" transform="translate(37.377 0.193)" fill="#fff"/><path d="M27.826,21.659l0,0Z" transform="translate(18.148 14.124)" fill="#fff"/><path d="M89.945,40.4h.246c.3,0,.54-.1.54-.355,0-.207-.147-.363-.5-.363a2.226,2.226,0,0,0-.286.01Zm0,1.416h-.522v-2.46a4.535,4.535,0,0,1,.786-.068,1.36,1.36,0,0,1,.848.2.626.626,0,0,1,.216.532.59.59,0,0,1-.473.57v.02c.216.04.355.236.393.6a1.948,1.948,0,0,0,.139.61h-.542a2,2,0,0,1-.147-.638.4.4,0,0,0-.463-.375h-.236Zm.373-3.06a1.7,1.7,0,1,0,.012,0Zm.02-.443a2.218,2.218,0,1,1-.008,0Z" transform="translate(57.468 24.99)" fill="#fff"/></g></g></svg>