<svg xmlns="http://www.w3.org/2000/svg" width="50" height="50" viewBox="0 0 50 50"><g transform="translate(-143 -281)"><rect width="50" height="50" rx="10" transform="translate(143 281)" fill="#a7a9ac"/><path d="M18.873,10.569H17.741v-3.4a7.172,7.172,0,0,0-14.343,0v3.4H2.265A2.265,2.265,0,0,0,0,12.834v9.059a2.265,2.265,0,0,0,2.265,2.265H18.873a2.265,2.265,0,0,0,2.265-2.265V12.834A2.265,2.265,0,0,0,18.873,10.569Zm-4.907,0H7.172v-3.4a3.4,3.4,0,0,1,6.794,0Z" transform="translate(157.432 293.546)" fill="#fff"/></g></svg>