<svg width="100" height="124" viewBox="0 0 100 124" fill="none" xmlns="http://www.w3.org/2000/svg">
<g clip-path="url(#clip0_418_200)">
<path d="M5.67377 115.285V123.024H0.861206V101.888H5.67377V109.627H26.9884V115.272H5.67377V115.285Z" fill="white"/>
<path d="M0.861206 77.3895H27.001V82.9971H16.0588V93.7682H27.001V99.3758H0.861206V93.7682H11.2462V82.9971H0.861206V77.3895Z" fill="white"/>
<path d="M0.861206 65.0199V59.7041L27.001 49.7196V55.5555L21.2893 57.6108V67.0752L27.001 69.1304V74.9663L0.861206 65.0199ZM16.578 65.3878V59.2855L8.10538 62.3557L16.578 65.3878Z" fill="white"/>
<path d="M5.67377 44.6449V52.3838H0.861206V31.2476H5.67377V38.9866H26.9884V44.6322H5.67377V44.6449Z" fill="white"/>
<path d="M4.67325 27.6826H0V22.7855H5.11651C8.47264 22.7855 10.7523 24.955 10.7523 28.1774V30.1946H6.76292V29.4461C6.76292 28.3931 5.93972 27.6826 4.67325 27.6826Z" fill="white"/>
<path d="M18.1104 19.9817V14.5898C20.7574 14.3615 22.4417 12.6107 22.4417 9.8069C22.4417 7.33297 21.3906 5.65832 19.4149 5.65832C14.2984 5.65832 18.2244 19.2332 7.9534 19.2332C3.62209 19.2332 0.557251 15.4906 0.557251 10.1368C0.557251 4.49113 3.81206 0.710461 8.7766 0.570906V5.88668C6.72493 6.11504 5.38248 7.6882 5.38248 10.1494C5.38248 12.395 6.43364 13.7779 7.9534 13.7779C13.3992 13.7652 8.9919 0 19.3389 0C24.2275 0 27.2923 3.95828 27.2923 9.79421C27.2923 15.6301 23.6702 19.7407 18.1104 19.969V19.9817Z" fill="white"/>
<path d="M38.7918 4.82099H31.0664V0H52.1657V4.82099H44.4403V26.1729H38.8045V4.82099H38.7918Z" fill="white"/>
<path d="M76.621 0V26.1856H71.0233V15.2242H60.271V26.1856H54.6732V0H60.271V10.4032H71.0233V0H76.621Z" fill="white"/>
<path d="M81.8136 0H99.5821V4.82099H87.4113V10.3524H97.1125V15.2115H87.4113V21.3138H99.9873V26.1729H81.8009V0H81.8136Z" fill="white"/>
</g>
<defs>
<clipPath id="clip0_418_200">
<rect width="100" height="123.037" fill="white"/>
</clipPath>
</defs>
</svg>
