<svg width="26" height="26" viewBox="0 0 26 26" fill="none" xmlns="http://www.w3.org/2000/svg">
<path d="M24.6318 20.385C24.6318 20.805 24.5385 21.2367 24.3402 21.6567C24.1418 22.0767 23.8852 22.4733 23.5468 22.8467C22.9752 23.4767 22.3452 23.9317 21.6335 24.2233C20.9335 24.515 20.1752 24.6667 19.3585 24.6667C18.1685 24.6667 16.8968 24.3867 15.5552 23.815C14.2135 23.2433 12.8718 22.4733 11.5418 21.505C10.1863 20.5135 8.90714 19.4215 7.71516 18.2383C6.53539 17.0507 5.44728 15.7754 4.46016 14.4233C3.5035 13.0933 2.7335 11.7633 2.1735 10.445C1.6135 9.115 1.3335 7.84333 1.3335 6.63C1.3335 5.83667 1.4735 5.07833 1.7535 4.37833C2.0335 3.66667 2.47683 3.01333 3.09516 2.43C3.84183 1.695 4.6585 1.33333 5.52183 1.33333C5.8485 1.33333 6.17516 1.40333 6.46683 1.54333C6.77016 1.68333 7.0385 1.89333 7.2485 2.19667L9.95516 6.01167C10.1652 6.30333 10.3168 6.57167 10.4218 6.82833C10.5268 7.07333 10.5852 7.31833 10.5852 7.54C10.5852 7.82 10.5035 8.1 10.3402 8.36833C10.1885 8.63667 9.96683 8.91667 9.68683 9.19667L8.80016 10.1183C8.67183 10.2467 8.6135 10.3983 8.6135 10.585C8.6135 10.6783 8.62516 10.76 8.6485 10.8533C8.6835 10.9467 8.7185 11.0167 8.74183 11.0867C8.95183 11.4717 9.3135 11.9733 9.82683 12.58C10.3518 13.1867 10.9118 13.805 11.5185 14.4233C12.1485 15.0417 12.7552 15.6133 13.3735 16.1383C13.9802 16.6517 14.4818 17.0017 14.8785 17.2117C14.9368 17.235 15.0068 17.27 15.0885 17.305C15.1818 17.34 15.2752 17.3517 15.3802 17.3517C15.5785 17.3517 15.7302 17.2817 15.8585 17.1533L16.7452 16.2783C17.0368 15.9867 17.3168 15.765 17.5852 15.625C17.8535 15.4617 18.1218 15.38 18.4135 15.38C18.6352 15.38 18.8685 15.4267 19.1252 15.5317C19.3818 15.6367 19.6502 15.7883 19.9418 15.9867L23.8035 18.7283C24.1068 18.9383 24.3168 19.1833 24.4452 19.475C24.5618 19.7667 24.6318 20.0583 24.6318 20.385V20.385Z" stroke="#f90036" stroke-width="1.5" stroke-miterlimit="10"/>
</svg>
