<svg width="26" height="26" viewBox="0 0 26 26" fill="none" xmlns="http://www.w3.org/2000/svg">
<path d="M24.6316 20.385C24.6316 20.805 24.5383 21.2367 24.3399 21.6567C24.1416 22.0767 23.8849 22.4733 23.5466 22.8467C22.9749 23.4767 22.3449 23.9317 21.6333 24.2233C20.9333 24.515 20.1749 24.6667 19.3583 24.6667C18.1683 24.6667 16.8966 24.3867 15.5549 23.815C14.2133 23.2433 12.8716 22.4733 11.5416 21.505C10.186 20.5135 8.90689 19.4215 7.71492 18.2383C6.53515 17.0507 5.44703 15.7754 4.45992 14.4233C3.50325 13.0933 2.73325 11.7633 2.17325 10.445C1.61325 9.115 1.33325 7.84333 1.33325 6.63C1.33325 5.83667 1.47325 5.07833 1.75325 4.37833C2.03325 3.66667 2.47659 3.01333 3.09492 2.43C3.84159 1.695 4.65825 1.33333 5.52159 1.33333C5.84825 1.33333 6.17492 1.40333 6.46659 1.54333C6.76992 1.68333 7.03825 1.89333 7.24825 2.19667L9.95492 6.01167C10.1649 6.30333 10.3166 6.57167 10.4216 6.82833C10.5266 7.07333 10.5849 7.31833 10.5849 7.54C10.5849 7.82 10.5033 8.1 10.3399 8.36833C10.1883 8.63667 9.96658 8.91667 9.68658 9.19667L8.79992 10.1183C8.67158 10.2467 8.61325 10.3983 8.61325 10.585C8.61325 10.6783 8.62492 10.76 8.64825 10.8533C8.68325 10.9467 8.71825 11.0167 8.74159 11.0867C8.95159 11.4717 9.31325 11.9733 9.82658 12.58C10.3516 13.1867 10.9116 13.805 11.5183 14.4233C12.1483 15.0417 12.7549 15.6133 13.3733 16.1383C13.9799 16.6517 14.4816 17.0017 14.8783 17.2117C14.9366 17.235 15.0066 17.27 15.0883 17.305C15.1816 17.34 15.2749 17.3517 15.3799 17.3517C15.5783 17.3517 15.7299 17.2817 15.8583 17.1533L16.7449 16.2783C17.0366 15.9867 17.3166 15.765 17.5849 15.625C17.8533 15.4617 18.1216 15.38 18.4133 15.38C18.6349 15.38 18.8683 15.4267 19.1249 15.5317C19.3816 15.6367 19.6499 15.7883 19.9416 15.9867L23.8033 18.7283C24.1066 18.9383 24.3166 19.1833 24.4449 19.475C24.5616 19.7667 24.6316 20.0583 24.6316 20.385V20.385Z" stroke="#3341DD" stroke-width="1.5" stroke-miterlimit="10"/>
</svg>
