<svg width="32" height="32" viewBox="0 0 32 32" fill="none" xmlns="http://www.w3.org/2000/svg">
<path d="M18.6667 10.6667H25.3334M20.0001 16H25.3334M22.6667 21.3333H25.3334M22.6667 28H9.33341C4.00008 28 2.66675 26.6667 2.66675 21.3333V10.6667C2.66675 5.33333 4.00008 4 9.33341 4H22.6667C28.0001 4 29.3334 5.33333 29.3334 10.6667V21.3333C29.3334 26.6667 28.0001 28 22.6667 28Z" stroke="#3341DD" stroke-width="1.5" stroke-linecap="round" stroke-linejoin="round"/>
<path d="M16.0001 21.7733C15.9103 20.8374 15.4959 19.9624 14.8286 19.3C14.1614 18.6376 13.2833 18.2295 12.3467 18.1467C11.6728 18.08 10.994 18.08 10.3201 18.1467C9.38443 18.2321 8.50779 18.6409 7.841 19.3028C7.17422 19.9647 6.75898 20.8383 6.66675 21.7733M11.3334 15.0533C11.9735 15.0533 12.5873 14.7991 13.0399 14.3465C13.4925 13.8939 13.7467 13.2801 13.7467 12.64C13.7467 11.9999 13.4925 11.3861 13.0399 10.9335C12.5873 10.4809 11.9735 10.2267 11.3334 10.2267C10.6934 10.2267 10.0795 10.4809 9.62693 10.9335C9.17434 11.3861 8.92008 11.9999 8.92008 12.64C8.92008 13.2801 9.17434 13.8939 9.62693 14.3465C10.0795 14.7991 10.6934 15.0533 11.3334 15.0533V15.0533Z" stroke="#3341DD" stroke-width="1.5" stroke-linecap="round" stroke-linejoin="round"/>
</svg>
